<svg width="43" height="25" viewBox="0 0 43 25" fill="none" xmlns="http://www.w3.org/2000/svg">
<g clip-path="url(#clip0_104_502)">
<path d="M7.63288 19.9134H12.8609V12.6691L5.39233 9.47314V18.6351C5.39233 19.3424 6.39693 19.9134 7.63288 19.9134Z" fill="#4285F4"/>
<path d="M30.7858 19.9133H36.014C37.2537 19.9133 38.2545 19.3401 38.2545 18.6349V9.4729L30.7858 12.6689" fill="#34A853"/>
<path d="M30.7858 7.12927V12.6691L38.2545 9.47311V7.76836C38.2545 6.18746 35.0915 5.28615 32.8771 6.23433" fill="#FBBC04"/>
<path d="M12.8611 12.669V7.12934L21.8234 10.9644L30.7858 7.12915V12.6689L21.8234 16.5042" fill="#EA4335"/>
<path d="M5.39233 7.76836V9.47293L12.8609 12.669V7.12927L10.7697 6.23433C8.55154 5.28615 5.39233 6.18746 5.39233 7.76836Z" fill="#C5221F"/>
</g>
<defs>
<clipPath id="clip0_104_502">
<rect width="42.0636" height="24" fill="white" transform="translate(0.791626 0.878418)"/>
</clipPath>
</defs>
</svg>
