<svg width="408" height="134" viewBox="0 0 408 134" fill="none" xmlns="http://www.w3.org/2000/svg">
<path d="M32.697 25.774V34.405H14.679V43.729H28.161V52.108H14.679V70H3.906V25.774H32.697ZM32.4371 52.36C32.4371 48.748 33.1091 45.577 34.4531 42.847C35.8391 40.117 37.7081 38.017 40.0601 36.547C42.4121 35.077 45.0371 34.342 47.9351 34.342C50.4131 34.342 52.5761 34.846 54.4241 35.854C56.3141 36.862 57.7631 38.185 58.7711 39.823V34.846H69.5441V70H58.7711V65.023C57.7211 66.661 56.2511 67.984 54.3611 68.992C52.5131 70 50.3501 70.504 47.8721 70.504C45.0161 70.504 42.4121 69.769 40.0601 68.299C37.7081 66.787 35.8391 64.666 34.4531 61.936C33.1091 59.164 32.4371 55.972 32.4371 52.36ZM58.7711 52.423C58.7711 49.735 58.0151 47.614 56.5031 46.06C55.0331 44.506 53.2271 43.729 51.0851 43.729C48.9431 43.729 47.1161 44.506 45.6041 46.06C44.1341 47.572 43.3991 49.672 43.3991 52.36C43.3991 55.048 44.1341 57.19 45.6041 58.786C47.1161 60.34 48.9431 61.117 51.0851 61.117C53.2271 61.117 55.0331 60.34 56.5031 58.786C58.0151 57.232 58.7711 55.111 58.7711 52.423ZM84.3309 39.823C85.3389 38.185 86.7879 36.862 88.6779 35.854C90.5679 34.846 92.7309 34.342 95.1669 34.342C98.0649 34.342 100.69 35.077 103.042 36.547C105.394 38.017 107.242 40.117 108.586 42.847C109.972 45.577 110.665 48.748 110.665 52.36C110.665 55.972 109.972 59.164 108.586 61.936C107.242 64.666 105.394 66.787 103.042 68.299C100.69 69.769 98.0649 70.504 95.1669 70.504C92.6889 70.504 90.5259 70.021 88.6779 69.055C86.8299 68.047 85.3809 66.724 84.3309 65.086V70H73.5579V23.38H84.3309V39.823ZM99.7029 52.36C99.7029 49.672 98.9469 47.572 97.4349 46.06C95.9649 44.506 94.1379 43.729 91.9539 43.729C89.8119 43.729 87.9849 44.506 86.4729 46.06C85.0029 47.614 84.2679 49.735 84.2679 52.423C84.2679 55.111 85.0029 57.232 86.4729 58.786C87.9849 60.34 89.8119 61.117 91.9539 61.117C94.0959 61.117 95.9229 60.34 97.4349 58.786C98.9469 57.19 99.7029 55.048 99.7029 52.36ZM123.31 40.705C124.57 38.773 126.145 37.261 128.035 36.169C129.925 35.035 132.025 34.468 134.335 34.468V45.871H131.374C128.686 45.871 126.67 46.459 125.326 47.635C123.982 48.769 123.31 50.785 123.31 53.683V70H112.537V34.846H123.31V40.705ZM147.296 34.846V70H136.523V34.846H147.296ZM149.249 26.089L134.066 32.452V25.018L149.249 17.71V26.089ZM150.023 52.423C150.023 48.769 150.758 45.577 152.228 42.847C153.74 40.117 155.819 38.017 158.465 36.547C161.153 35.077 164.219 34.342 167.663 34.342C172.073 34.342 175.748 35.497 178.688 37.807C181.67 40.117 183.623 43.372 184.547 47.572H173.081C172.115 44.884 170.246 43.54 167.474 43.54C165.5 43.54 163.925 44.317 162.749 45.871C161.573 47.383 160.985 49.567 160.985 52.423C160.985 55.279 161.573 57.484 162.749 59.038C163.925 60.55 165.5 61.306 167.474 61.306C170.246 61.306 172.115 59.962 173.081 57.274H184.547C183.623 61.39 181.67 64.624 178.688 66.976C175.706 69.328 172.031 70.504 167.663 70.504C164.219 70.504 161.153 69.769 158.465 68.299C155.819 66.829 153.74 64.729 152.228 61.999C150.758 59.269 150.023 56.077 150.023 52.423ZM191.948 31.192C190.058 31.192 188.504 30.646 187.286 29.554C186.11 28.42 185.522 27.034 185.522 25.396C185.522 23.716 186.11 22.33 187.286 21.238C188.504 20.104 190.058 19.537 191.948 19.537C193.796 19.537 195.308 20.104 196.484 21.238C197.702 22.33 198.311 23.716 198.311 25.396C198.311 27.034 197.702 28.42 196.484 29.554C195.308 30.646 193.796 31.192 191.948 31.192ZM197.303 34.846V70H186.53V34.846H197.303ZM217.332 70.504C213.888 70.504 210.78 69.769 208.008 68.299C205.278 66.829 203.115 64.729 201.519 61.999C199.965 59.269 199.188 56.077 199.188 52.423C199.188 48.811 199.986 45.64 201.582 42.91C203.178 40.138 205.362 38.017 208.134 36.547C210.906 35.077 214.014 34.342 217.458 34.342C220.902 34.342 224.01 35.077 226.782 36.547C229.554 38.017 231.738 40.138 233.334 42.91C234.93 45.64 235.728 48.811 235.728 52.423C235.728 56.035 234.909 59.227 233.271 61.999C231.675 64.729 229.47 66.829 226.656 68.299C223.884 69.769 220.776 70.504 217.332 70.504ZM217.332 61.18C219.39 61.18 221.133 60.424 222.561 58.912C224.031 57.4 224.766 55.237 224.766 52.423C224.766 49.609 224.052 47.446 222.624 45.934C221.238 44.422 219.516 43.666 217.458 43.666C215.358 43.666 213.615 44.422 212.229 45.934C210.843 47.404 210.15 49.567 210.15 52.423C210.15 55.237 210.822 57.4 212.166 58.912C213.552 60.424 215.274 61.18 217.332 61.18ZM280.939 40.012C280.939 42.574 280.351 44.926 279.175 47.068C277.999 49.168 276.193 50.869 273.757 52.171C271.321 53.473 268.297 54.124 264.685 54.124H258.007V70H247.234V25.774H264.685C268.213 25.774 271.195 26.383 273.631 27.601C276.067 28.819 277.894 30.499 279.112 32.641C280.33 34.783 280.939 37.24 280.939 40.012ZM263.866 45.556C265.924 45.556 267.457 45.073 268.465 44.107C269.473 43.141 269.977 41.776 269.977 40.012C269.977 38.248 269.473 36.883 268.465 35.917C267.457 34.951 265.924 34.468 263.866 34.468H258.007V45.556H263.866ZM315.905 51.856C315.905 52.864 315.842 53.914 315.716 55.006H291.335C291.503 57.19 292.196 58.87 293.414 60.046C294.674 61.18 296.207 61.747 298.013 61.747C300.701 61.747 302.57 60.613 303.62 58.345H315.086C314.498 60.655 313.427 62.734 311.873 64.582C310.361 66.43 308.45 67.879 306.14 68.929C303.83 69.979 301.247 70.504 298.391 70.504C294.947 70.504 291.881 69.769 289.193 68.299C286.505 66.829 284.405 64.729 282.893 61.999C281.381 59.269 280.625 56.077 280.625 52.423C280.625 48.769 281.36 45.577 282.83 42.847C284.342 40.117 286.442 38.017 289.13 36.547C291.818 35.077 294.905 34.342 298.391 34.342C301.793 34.342 304.817 35.056 307.463 36.484C310.109 37.912 312.167 39.949 313.637 42.595C315.149 45.241 315.905 48.328 315.905 51.856ZM304.88 49.021C304.88 47.173 304.25 45.703 302.99 44.611C301.73 43.519 300.155 42.973 298.265 42.973C296.459 42.973 294.926 43.498 293.666 44.548C292.448 45.598 291.692 47.089 291.398 49.021H304.88ZM328.581 40.705C329.841 38.773 331.416 37.261 333.306 36.169C335.196 35.035 337.296 34.468 339.606 34.468V45.871H336.645C333.957 45.871 331.941 46.459 330.597 47.635C329.253 48.769 328.581 50.785 328.581 53.683V70H317.808V34.846H328.581V40.705ZM374.114 51.856C374.114 52.864 374.051 53.914 373.925 55.006H349.544C349.712 57.19 350.405 58.87 351.623 60.046C352.883 61.18 354.416 61.747 356.222 61.747C358.91 61.747 360.779 60.613 361.829 58.345H373.295C372.707 60.655 371.636 62.734 370.082 64.582C368.57 66.43 366.659 67.879 364.349 68.929C362.039 69.979 359.456 70.504 356.6 70.504C353.156 70.504 350.09 69.769 347.402 68.299C344.714 66.829 342.614 64.729 341.102 61.999C339.59 59.269 338.834 56.077 338.834 52.423C338.834 48.769 339.569 45.577 341.039 42.847C342.551 40.117 344.651 38.017 347.339 36.547C350.027 35.077 353.114 34.342 356.6 34.342C360.002 34.342 363.026 35.056 365.672 36.484C368.318 37.912 370.376 39.949 371.846 42.595C373.358 45.241 374.114 48.328 374.114 51.856ZM363.089 49.021C363.089 47.173 362.459 45.703 361.199 44.611C359.939 43.519 358.364 42.973 356.474 42.973C354.668 42.973 353.135 43.498 351.875 44.548C350.657 45.598 349.901 47.089 349.607 49.021H363.089ZM390.318 70.504C387.252 70.504 384.522 69.979 382.128 68.929C379.734 67.879 377.844 66.451 376.458 64.645C375.072 62.797 374.295 60.739 374.127 58.471H384.774C384.9 59.689 385.467 60.676 386.475 61.432C387.483 62.188 388.722 62.566 390.192 62.566C391.536 62.566 392.565 62.314 393.279 61.81C394.035 61.264 394.413 60.571 394.413 59.731C394.413 58.723 393.888 57.988 392.838 57.526C391.788 57.022 390.087 56.476 387.735 55.888C385.215 55.3 383.115 54.691 381.435 54.061C379.755 53.389 378.306 52.36 377.088 50.974C375.87 49.546 375.261 47.635 375.261 45.241C375.261 43.225 375.807 41.398 376.899 39.76C378.033 38.08 379.671 36.757 381.813 35.791C383.997 34.825 386.58 34.342 389.562 34.342C393.972 34.342 397.437 35.434 399.957 37.618C402.519 39.802 403.989 42.7 404.367 46.312H394.413C394.245 45.094 393.699 44.128 392.775 43.414C391.893 42.7 390.717 42.343 389.247 42.343C387.987 42.343 387.021 42.595 386.349 43.099C385.677 43.561 385.341 44.212 385.341 45.052C385.341 46.06 385.866 46.816 386.916 47.32C388.008 47.824 389.688 48.328 391.956 48.832C394.56 49.504 396.681 50.176 398.319 50.848C399.957 51.478 401.385 52.528 402.603 53.998C403.863 55.426 404.514 57.358 404.556 59.794C404.556 61.852 403.968 63.7 402.792 65.338C401.658 66.934 399.999 68.194 397.815 69.118C395.673 70.042 393.174 70.504 390.318 70.504Z" fill="white"/>
<path d="M55.434 108.79V113.34H61.544V116.226H55.434V121.036H62.324V124H51.794V105.826H62.324V108.79H55.434ZM71.1439 124.234C69.9652 124.234 68.9079 124.026 67.9719 123.61C67.0359 123.177 66.2906 122.596 65.7359 121.868C65.1986 121.14 64.9039 120.334 64.8519 119.45H68.5179C68.5872 120.005 68.8559 120.464 69.3239 120.828C69.8092 121.192 70.4072 121.374 71.1179 121.374C71.8112 121.374 72.3486 121.235 72.7299 120.958C73.1286 120.681 73.3279 120.325 73.3279 119.892C73.3279 119.424 73.0852 119.077 72.5999 118.852C72.1319 118.609 71.3779 118.349 70.3379 118.072C69.2632 117.812 68.3792 117.543 67.6859 117.266C67.0099 116.989 66.4206 116.564 65.9179 115.992C65.4326 115.42 65.1899 114.649 65.1899 113.678C65.1899 112.881 65.4152 112.153 65.8659 111.494C66.3339 110.835 66.9926 110.315 67.8419 109.934C68.7086 109.553 69.7226 109.362 70.8839 109.362C72.5999 109.362 73.9692 109.795 74.9919 110.662C76.0146 111.511 76.5779 112.664 76.6819 114.12H73.1979C73.1459 113.548 72.9032 113.097 72.4699 112.768C72.0539 112.421 71.4906 112.248 70.7799 112.248C70.1212 112.248 69.6099 112.369 69.2459 112.612C68.8992 112.855 68.7259 113.193 68.7259 113.626C68.7259 114.111 68.9686 114.484 69.4539 114.744C69.9392 114.987 70.6932 115.238 71.7159 115.498C72.7559 115.758 73.6139 116.027 74.2899 116.304C74.9659 116.581 75.5466 117.015 76.0319 117.604C76.5346 118.176 76.7946 118.939 76.8119 119.892C76.8119 120.724 76.5779 121.469 76.1099 122.128C75.6592 122.787 75.0006 123.307 74.1339 123.688C73.2846 124.052 72.2879 124.234 71.1439 124.234ZM84.0379 112.586V119.554C84.0379 120.039 84.1505 120.395 84.3759 120.62C84.6185 120.828 85.0172 120.932 85.5719 120.932H87.2619V124H84.9739C81.9059 124 80.3719 122.509 80.3719 119.528V112.586H78.6559V109.596H80.3719V106.034H84.0379V109.596H87.2619V112.586H84.0379ZM103.478 109.596V124H99.8119V122.18C99.3439 122.804 98.7286 123.298 97.9659 123.662C97.2206 124.009 96.4059 124.182 95.5219 124.182C94.3953 124.182 93.3986 123.948 92.5319 123.48C91.6653 122.995 90.9806 122.293 90.4779 121.374C89.9926 120.438 89.7499 119.329 89.7499 118.046V109.596H93.3899V117.526C93.3899 118.67 93.6759 119.554 94.2479 120.178C94.8199 120.785 95.5999 121.088 96.5879 121.088C97.5933 121.088 98.3819 120.785 98.9539 120.178C99.5259 119.554 99.8119 118.67 99.8119 117.526V109.596H103.478ZM106.133 116.746C106.133 115.29 106.419 113.999 106.991 112.872C107.581 111.745 108.378 110.879 109.383 110.272C110.389 109.665 111.507 109.362 112.737 109.362C113.673 109.362 114.566 109.57 115.415 109.986C116.265 110.385 116.941 110.922 117.443 111.598V104.76H121.135V124H117.443V121.868C116.993 122.579 116.36 123.151 115.545 123.584C114.731 124.017 113.786 124.234 112.711 124.234C111.498 124.234 110.389 123.922 109.383 123.298C108.378 122.674 107.581 121.799 106.991 120.672C106.419 119.528 106.133 118.219 106.133 116.746ZM117.469 116.798C117.469 115.914 117.296 115.16 116.949 114.536C116.603 113.895 116.135 113.409 115.545 113.08C114.956 112.733 114.323 112.56 113.647 112.56C112.971 112.56 112.347 112.725 111.775 113.054C111.203 113.383 110.735 113.869 110.371 114.51C110.025 115.134 109.851 115.879 109.851 116.746C109.851 117.613 110.025 118.375 110.371 119.034C110.735 119.675 111.203 120.169 111.775 120.516C112.365 120.863 112.989 121.036 113.647 121.036C114.323 121.036 114.956 120.871 115.545 120.542C116.135 120.195 116.603 119.71 116.949 119.086C117.296 118.445 117.469 117.682 117.469 116.798ZM123.754 116.746C123.754 115.29 124.04 113.999 124.612 112.872C125.202 111.745 125.99 110.879 126.978 110.272C127.984 109.665 129.102 109.362 130.332 109.362C131.407 109.362 132.343 109.579 133.14 110.012C133.955 110.445 134.605 110.991 135.09 111.65V109.596H138.756V124H135.09V121.894C134.622 122.57 133.972 123.133 133.14 123.584C132.326 124.017 131.381 124.234 130.306 124.234C129.093 124.234 127.984 123.922 126.978 123.298C125.99 122.674 125.202 121.799 124.612 120.672C124.04 119.528 123.754 118.219 123.754 116.746ZM135.09 116.798C135.09 115.914 134.917 115.16 134.57 114.536C134.224 113.895 133.756 113.409 133.166 113.08C132.577 112.733 131.944 112.56 131.268 112.56C130.592 112.56 129.968 112.725 129.396 113.054C128.824 113.383 128.356 113.869 127.992 114.51C127.646 115.134 127.472 115.879 127.472 116.746C127.472 117.613 127.646 118.375 127.992 119.034C128.356 119.675 128.824 120.169 129.396 120.516C129.986 120.863 130.61 121.036 131.268 121.036C131.944 121.036 132.577 120.871 133.166 120.542C133.756 120.195 134.224 119.71 134.57 119.086C134.917 118.445 135.09 117.682 135.09 116.798ZM150.294 109.388C152.01 109.388 153.396 109.934 154.454 111.026C155.511 112.101 156.04 113.609 156.04 115.55V124H152.4V116.044C152.4 114.9 152.114 114.025 151.542 113.418C150.97 112.794 150.19 112.482 149.202 112.482C148.196 112.482 147.399 112.794 146.81 113.418C146.238 114.025 145.952 114.9 145.952 116.044V124H142.312V109.596H145.952V111.39C146.437 110.766 147.052 110.281 147.798 109.934C148.56 109.57 149.392 109.388 150.294 109.388ZM163.739 112.586V119.554C163.739 120.039 163.852 120.395 164.077 120.62C164.32 120.828 164.718 120.932 165.273 120.932H166.963V124H164.675C161.607 124 160.073 122.509 160.073 119.528V112.586H158.357V109.596H160.073V106.034H163.739V109.596H166.963V112.586H163.739ZM182.971 116.486C182.971 117.006 182.936 117.474 182.867 117.89H172.337C172.424 118.93 172.788 119.745 173.429 120.334C174.07 120.923 174.859 121.218 175.795 121.218C177.147 121.218 178.109 120.637 178.681 119.476H182.607C182.191 120.863 181.394 122.007 180.215 122.908C179.036 123.792 177.589 124.234 175.873 124.234C174.486 124.234 173.238 123.931 172.129 123.324C171.037 122.7 170.179 121.825 169.555 120.698C168.948 119.571 168.645 118.271 168.645 116.798C168.645 115.307 168.948 113.999 169.555 112.872C170.162 111.745 171.011 110.879 172.103 110.272C173.195 109.665 174.452 109.362 175.873 109.362C177.242 109.362 178.464 109.657 179.539 110.246C180.631 110.835 181.472 111.676 182.061 112.768C182.668 113.843 182.971 115.082 182.971 116.486ZM179.201 115.446C179.184 114.51 178.846 113.765 178.187 113.21C177.528 112.638 176.722 112.352 175.769 112.352C174.868 112.352 174.105 112.629 173.481 113.184C172.874 113.721 172.502 114.475 172.363 115.446H179.201ZM203.029 105.852V108.79H195.463V113.444H201.261V116.33H195.463V124H191.823V105.852H203.029ZM219.208 109.596V124H215.542V122.18C215.074 122.804 214.459 123.298 213.696 123.662C212.951 124.009 212.136 124.182 211.252 124.182C210.126 124.182 209.129 123.948 208.262 123.48C207.396 122.995 206.711 122.293 206.208 121.374C205.723 120.438 205.48 119.329 205.48 118.046V109.596H209.12V117.526C209.12 118.67 209.406 119.554 209.978 120.178C210.55 120.785 211.33 121.088 212.318 121.088C213.324 121.088 214.112 120.785 214.684 120.178C215.256 119.554 215.542 118.67 215.542 117.526V109.596H219.208ZM226.44 104.76V124H222.8V104.76H226.44ZM233.676 104.76V124H230.036V104.76H233.676ZM248.349 113.184V116.252H237.325V113.184H248.349ZM258.697 124.182C257.431 124.182 256.287 123.965 255.265 123.532C254.259 123.099 253.462 122.475 252.873 121.66C252.283 120.845 251.98 119.883 251.963 118.774H255.863C255.915 119.519 256.175 120.109 256.643 120.542C257.128 120.975 257.787 121.192 258.619 121.192C259.468 121.192 260.135 120.993 260.621 120.594C261.106 120.178 261.349 119.641 261.349 118.982C261.349 118.445 261.184 118.003 260.855 117.656C260.525 117.309 260.109 117.041 259.607 116.85C259.121 116.642 258.445 116.417 257.579 116.174C256.4 115.827 255.438 115.489 254.693 115.16C253.965 114.813 253.332 114.302 252.795 113.626C252.275 112.933 252.015 112.014 252.015 110.87C252.015 109.795 252.283 108.859 252.821 108.062C253.358 107.265 254.112 106.658 255.083 106.242C256.053 105.809 257.163 105.592 258.411 105.592C260.283 105.592 261.799 106.051 262.961 106.97C264.139 107.871 264.789 109.137 264.911 110.766H260.907C260.872 110.142 260.603 109.631 260.101 109.232C259.615 108.816 258.965 108.608 258.151 108.608C257.44 108.608 256.868 108.79 256.435 109.154C256.019 109.518 255.811 110.047 255.811 110.74C255.811 111.225 255.967 111.633 256.279 111.962C256.608 112.274 257.007 112.534 257.475 112.742C257.96 112.933 258.636 113.158 259.503 113.418C260.681 113.765 261.643 114.111 262.389 114.458C263.134 114.805 263.775 115.325 264.313 116.018C264.85 116.711 265.119 117.621 265.119 118.748C265.119 119.719 264.867 120.62 264.365 121.452C263.862 122.284 263.125 122.951 262.155 123.454C261.184 123.939 260.031 124.182 258.697 124.182ZM272.512 112.586V119.554C272.512 120.039 272.625 120.395 272.85 120.62C273.093 120.828 273.492 120.932 274.046 120.932H275.736V124H273.448C270.38 124 268.846 122.509 268.846 119.528V112.586H267.13V109.596H268.846V106.034H272.512V109.596H275.736V112.586H272.512ZM277.419 116.746C277.419 115.29 277.705 113.999 278.277 112.872C278.866 111.745 279.655 110.879 280.643 110.272C281.648 109.665 282.766 109.362 283.997 109.362C285.071 109.362 286.007 109.579 286.805 110.012C287.619 110.445 288.269 110.991 288.755 111.65V109.596H292.421V124H288.755V121.894C288.287 122.57 287.637 123.133 286.805 123.584C285.99 124.017 285.045 124.234 283.971 124.234C282.757 124.234 281.648 123.922 280.643 123.298C279.655 122.674 278.866 121.799 278.277 120.672C277.705 119.528 277.419 118.219 277.419 116.746ZM288.755 116.798C288.755 115.914 288.581 115.16 288.235 114.536C287.888 113.895 287.42 113.409 286.831 113.08C286.241 112.733 285.609 112.56 284.933 112.56C284.257 112.56 283.633 112.725 283.061 113.054C282.489 113.383 282.021 113.869 281.657 114.51C281.31 115.134 281.137 115.879 281.137 116.746C281.137 117.613 281.31 118.375 281.657 119.034C282.021 119.675 282.489 120.169 283.061 120.516C283.65 120.863 284.274 121.036 284.933 121.036C285.609 121.036 286.241 120.871 286.831 120.542C287.42 120.195 287.888 119.71 288.235 119.086C288.581 118.445 288.755 117.682 288.755 116.798ZM295.04 116.798C295.04 115.307 295.343 114.007 295.95 112.898C296.556 111.771 297.397 110.905 298.472 110.298C299.546 109.674 300.777 109.362 302.164 109.362C303.949 109.362 305.422 109.813 306.584 110.714C307.762 111.598 308.551 112.846 308.95 114.458H305.024C304.816 113.834 304.46 113.349 303.958 113.002C303.472 112.638 302.866 112.456 302.138 112.456C301.098 112.456 300.274 112.837 299.668 113.6C299.061 114.345 298.758 115.411 298.758 116.798C298.758 118.167 299.061 119.233 299.668 119.996C300.274 120.741 301.098 121.114 302.138 121.114C303.611 121.114 304.573 120.455 305.024 119.138H308.95C308.551 120.698 307.762 121.937 306.584 122.856C305.405 123.775 303.932 124.234 302.164 124.234C300.777 124.234 299.546 123.931 298.472 123.324C297.397 122.7 296.556 121.833 295.95 120.724C295.343 119.597 295.04 118.289 295.04 116.798ZM320.144 124L315.256 117.864V124H311.616V104.76H315.256V115.706L320.092 109.596H324.824L318.48 116.824L324.876 124H320.144ZM331.201 125.82H357.201V99.82H331.201V125.82Z" fill="url(#paint0_linear_128_41)"/>
<defs>
<linearGradient id="paint0_linear_128_41" x1="50" y1="114.5" x2="330.721" y2="135.223" gradientUnits="userSpaceOnUse">
<stop stop-color="#4FC3F7"/>
<stop offset="1" stop-color="white"/>
</linearGradient>
</defs>
</svg>
