<svg width="33" height="32" viewBox="0 0 33 32" fill="none" xmlns="http://www.w3.org/2000/svg">
<path d="M16.4997 0C7.67757 0 0.5 7.17757 0.5 16C0.5 24.8227 7.67757 32 16.4997 32C25.3222 32 32.5 24.8227 32.5 16C32.4997 7.17757 25.3219 0 16.4997 0ZM16.4997 30.4219C8.5476 30.4219 2.07806 23.9524 2.07806 16C2.07806 8.04787 8.5476 1.57806 16.4997 1.57806C24.4519 1.57806 30.9219 8.04787 30.9219 16C30.9217 23.9524 24.4519 30.4219 16.4997 30.4219Z" fill="#484E53"/>
<path d="M21.4272 6.61109H17.9565C17.9486 6.61103 17.9407 6.61139 17.9329 6.61214C14.4288 6.62319 13.9711 9.06998 13.9693 11.2085C13.9644 11.2288 13.962 11.2495 13.9619 11.2703V12.7716H11.5638C11.494 12.7716 11.4271 12.7993 11.3778 12.8486C11.3285 12.898 11.3008 12.9648 11.3008 13.0346V16.737C11.3008 16.8068 11.3285 16.8737 11.3778 16.923C11.4271 16.9723 11.494 17 11.5638 17H13.9619V25.1247C13.9619 25.1944 13.9896 25.2613 14.039 25.3107C14.0883 25.36 14.1552 25.3877 14.2249 25.3877H17.7248C17.7946 25.3877 17.8615 25.36 17.9108 25.3107C17.9601 25.2613 17.9878 25.1944 17.9878 25.1247V17.0003H21.427C21.4967 17.0003 21.5636 16.9726 21.6129 16.9232C21.6623 16.8739 21.69 16.807 21.69 16.7373V13.0349C21.69 12.9651 21.6623 12.8982 21.6129 12.8489C21.5636 12.7996 21.4967 12.7719 21.427 12.7719H17.7248V10.7817H21.427C21.4967 10.7817 21.5636 10.7539 21.6129 10.7046C21.6623 10.6553 21.69 10.5884 21.69 10.5186V6.8741C21.69 6.83957 21.6832 6.80538 21.67 6.77347C21.6569 6.74156 21.6375 6.71257 21.6131 6.68814C21.5887 6.66371 21.5597 6.64434 21.5278 6.63111C21.4959 6.61789 21.4617 6.61109 21.4272 6.61109Z" fill="#A9A9A9"/>
</svg>
