<svg width="33" height="32" viewBox="0 0 33 32" fill="none" xmlns="http://www.w3.org/2000/svg">
<path d="M16.4997 0C7.67757 0 0.5 7.17757 0.5 16C0.5 24.8227 7.67757 32 16.4997 32C25.3222 32 32.5 24.8227 32.5 16C32.4997 7.17757 25.3219 0 16.4997 0ZM16.4997 30.4219C8.5476 30.4219 2.07806 23.9524 2.07806 16C2.07806 8.04787 8.5476 1.57806 16.4997 1.57806C24.4519 1.57806 30.9219 8.04787 30.9219 16C30.9217 23.9524 24.4519 30.4219 16.4997 30.4219Z" fill="#484E53"/>
<path d="M8.37305 12.6096H12.0757V22.2711H8.37305V12.6096Z" fill="#A9A9A9"/>
<path d="M10.1884 11.0678C11.2234 11.0678 12.0624 10.3024 12.0624 9.35825C12.0624 8.41408 11.2234 7.64868 10.1884 7.64868C9.15345 7.64868 8.31445 8.41408 8.31445 9.35825C8.31445 10.3024 9.15345 11.0678 10.1884 11.0678Z" fill="#A9A9A9"/>
<path d="M21.3831 12.3909C20.6248 12.3909 19.9823 12.529 19.4541 12.8048C18.9265 13.081 18.4052 13.5402 17.8895 14.183V12.6092H14.4414V22.2706H18.1441V17.6308C18.1441 16.7513 18.2837 16.1422 18.5628 15.8024C18.8418 15.4628 19.2053 15.2929 19.6543 15.2929C20.0606 15.2929 20.376 15.4189 20.6006 15.6706C20.8252 15.9223 20.937 16.3513 20.937 16.9581V22.2706H24.6581V16.1301C24.6581 14.8563 24.3682 13.9148 23.7888 13.3051C23.2102 12.6954 22.4077 12.3909 21.3831 12.3909Z" fill="#A9A9A9"/>
</svg>
