<svg width="65" height="24" viewBox="0 0 65 24" fill="none" xmlns="http://www.w3.org/2000/svg">
<path d="M8.28 14.636C7.704 14.636 7.26667 14.6253 6.968 14.604C6.05067 18.6147 5.53867 21.3987 5.432 22.956C4.51467 23.404 3.11733 23.628 1.24 23.628C0.834667 23.628 0.557333 23.6173 0.408 23.596C0.557333 22.3373 1.19733 19.18 2.328 14.124C3.45867 9.04667 4.024 5.84667 4.024 4.524C4.024 4.268 3.87467 3.93733 3.576 3.532C3.29867 3.10533 3.01067 2.75333 2.712 2.476L2.296 2.06L2.392 1.58C5.976 1.04667 8.87733 0.779999 11.096 0.779999C15.4907 0.779999 17.688 2.572 17.688 6.156C17.688 8.54533 16.8987 10.5613 15.32 12.204C13.7413 13.8253 11.3947 14.636 8.28 14.636ZM7.768 12.492C9.41067 12.492 10.648 11.8733 11.48 10.636C12.3333 9.39867 12.76 7.74533 12.76 5.676C12.76 4.82267 12.6 4.12933 12.28 3.596C11.96 3.04133 11.4907 2.764 10.872 2.764C10.4667 2.764 9.96533 2.83867 9.368 2.988C9.02667 5.228 8.38667 8.396 7.448 12.492H7.768ZM17.3008 17.964C17.3008 15.2973 18.1008 13.196 19.7008 11.66C21.3221 10.1027 23.1568 9.324 25.2048 9.324C26.4634 9.324 27.4981 9.63333 28.3088 10.252C29.1194 10.8707 29.5248 11.7027 29.5248 12.748C29.5248 13.772 29.2581 14.636 28.7248 15.34C28.2128 16.044 27.5834 16.588 26.8368 16.972C25.3221 17.7187 23.9354 18.188 22.6768 18.38L21.9088 18.476C22.0581 20.4813 22.8794 21.484 24.3728 21.484C24.8848 21.484 25.4288 21.356 26.0048 21.1C26.5808 20.844 27.0288 20.588 27.3488 20.332L27.8288 19.948L28.5968 20.972C28.4261 21.2067 28.0848 21.516 27.5728 21.9C27.0608 22.284 26.5808 22.604 26.1328 22.86C24.8954 23.5427 23.5408 23.884 22.0688 23.884C20.5968 23.884 19.4341 23.3613 18.5807 22.316C17.7274 21.2707 17.3008 19.82 17.3008 17.964ZM21.8768 16.908C22.9648 16.716 23.8288 16.2573 24.4688 15.532C25.1088 14.8067 25.4288 13.868 25.4288 12.716C25.4288 11.564 25.0874 10.988 24.4048 10.988C23.5941 10.988 22.9648 11.6813 22.5168 13.068C22.0901 14.4333 21.8768 15.7133 21.8768 16.908ZM30.85 23.596H30.626C30.5833 23.4253 30.562 23.0413 30.562 22.444C30.562 21.8253 30.85 20.1827 31.426 17.516C32.002 14.8493 32.29 13.324 32.29 12.94C32.29 12.2787 31.9913 11.5533 31.394 10.764L31.106 10.38L31.138 9.964C32.29 9.644 34.1353 9.484 36.674 9.484C36.93 10.0387 37.058 10.8173 37.058 11.82C37.2927 11.436 37.7833 10.924 38.53 10.284C39.2767 9.644 40.0447 9.324 40.834 9.324C41.986 9.324 42.562 10.3267 42.562 12.332C42.4553 12.46 42.306 12.6307 42.114 12.844C41.9433 13.036 41.5807 13.3133 41.026 13.676C40.4927 14.0387 39.97 14.2627 39.458 14.348C39.4367 14.348 39.2553 14.06 38.914 13.484C38.5727 12.908 38.3167 12.62 38.146 12.62C37.6127 12.812 37.1433 13.132 36.738 13.58C35.7567 17.996 35.266 20.8547 35.266 22.156C35.266 22.6253 35.2767 22.956 35.298 23.148C34.5513 23.4467 33.0687 23.596 30.85 23.596ZM41.7383 17.964C41.7383 15.2973 42.5383 13.196 44.1383 11.66C45.7596 10.1027 47.5943 9.324 49.6423 9.324C50.9009 9.324 51.9356 9.63333 52.7463 10.252C53.5569 10.8707 53.9623 11.7027 53.9623 12.748C53.9623 13.772 53.6956 14.636 53.1623 15.34C52.6503 16.044 52.0209 16.588 51.2743 16.972C49.7596 17.7187 48.3729 18.188 47.1143 18.38L46.3463 18.476C46.4956 20.4813 47.3169 21.484 48.8103 21.484C49.3223 21.484 49.8663 21.356 50.4423 21.1C51.0183 20.844 51.4663 20.588 51.7863 20.332L52.2663 19.948L53.0343 20.972C52.8636 21.2067 52.5223 21.516 52.0103 21.9C51.4983 22.284 51.0183 22.604 50.5703 22.86C49.3329 23.5427 47.9783 23.884 46.5063 23.884C45.0343 23.884 43.8716 23.3613 43.0182 22.316C42.1649 21.2707 41.7383 19.82 41.7383 17.964ZM46.3143 16.908C47.4023 16.716 48.2663 16.2573 48.9062 15.532C49.5463 14.8067 49.8663 13.868 49.8663 12.716C49.8663 11.564 49.5249 10.988 48.8423 10.988C48.0316 10.988 47.4023 11.6813 46.9543 13.068C46.5276 14.4333 46.3143 15.7133 46.3143 16.908ZM64.848 19.308C64.848 20.652 64.2507 21.7507 63.056 22.604C61.8827 23.4573 60.5387 23.884 59.024 23.884C57.5093 23.884 56.304 23.564 55.408 22.924C54.5333 22.284 54.096 21.7187 54.096 21.228C54.096 20.9293 54.4693 20.4493 55.216 19.788C55.9627 19.1053 56.592 18.6893 57.104 18.54C58.1707 19.3293 59.0453 20.5773 59.728 22.284C60.5173 22.22 60.912 21.8467 60.912 21.164C60.912 20.1827 60.048 18.796 58.32 17.004C56.592 15.1907 55.728 13.7507 55.728 12.684C55.728 11.6173 56.208 10.796 57.168 10.22C58.128 9.62267 59.28 9.324 60.624 9.324C61.9893 9.324 63.0133 9.56933 63.696 10.06C64.3787 10.5293 64.72 11.18 64.72 12.012C64.72 12.8227 64.0693 13.9533 62.768 15.404C62.9173 15.5533 63.1093 15.756 63.344 16.012C63.5787 16.2467 63.888 16.7053 64.272 17.388C64.656 18.0707 64.848 18.7107 64.848 19.308ZM61.776 14.284C62.672 13.516 63.12 12.7587 63.12 12.012C63.12 11.2653 62.608 10.892 61.584 10.892C61.0933 10.892 60.688 10.9987 60.368 11.212C60.048 11.404 59.888 11.628 59.888 11.884C59.888 12.3533 60.3573 13.0147 61.296 13.868L61.776 14.284Z" fill="white"/>
</svg>
