<svg width="33" height="32" viewBox="0 0 33 32" fill="none" xmlns="http://www.w3.org/2000/svg">
<path d="M16.4997 0C7.67757 0 0.5 7.17757 0.5 16C0.5 24.8224 7.67757 32 16.4997 32C25.3222 32 32.5 24.8224 32.5 16C32.5 7.17757 25.3219 0 16.4997 0ZM16.4997 30.4219C8.5476 30.4219 2.07806 23.9521 2.07806 16C2.07806 8.04787 8.5476 1.57806 16.4997 1.57806C24.4519 1.57806 30.9219 8.04787 30.9219 16C30.9219 23.9521 24.4519 30.4219 16.4997 30.4219Z" fill="#484E53"/>
<path d="M16.4326 7.05786C11.5017 7.05786 7.49023 11.0693 7.49023 16C7.49023 20.9309 11.5017 24.9423 16.4326 24.9423C21.3635 24.9423 25.375 20.9309 25.375 16C25.375 11.0693 21.3635 7.05786 16.4326 7.05786ZM22.2701 11.5183C23.223 12.7539 23.7563 14.2617 23.7922 15.8216C21.9258 15.5318 20.2697 15.5736 18.8176 15.8316C18.5825 15.2811 18.3322 14.7371 18.0669 14.2004C19.5651 13.5647 21.0274 12.6992 22.2701 11.5183ZM21.1784 10.3755C20.0585 11.4375 18.7142 12.2168 17.3271 12.7886C16.2643 10.8694 15.2527 9.47046 14.7625 8.82898C15.3099 8.70093 15.8702 8.63616 16.4323 8.63593C18.2397 8.63593 19.8957 9.29135 21.1784 10.3755ZM13.4745 9.25795L13.2428 9.44889C13.2673 9.47861 14.4766 10.9696 15.8085 13.3333C13.0624 14.1823 10.4112 14.3322 9.25609 14.3525C9.78106 12.0669 11.371 10.1848 13.4745 9.25795ZM9.0683 16C9.0683 15.9781 9.06961 15.9566 9.06988 15.9347C10.2384 15.9329 13.3438 15.8153 16.5683 14.7607C16.8083 15.2393 17.0361 15.724 17.2514 16.2143C13.7233 17.3071 11.6482 19.6237 10.8123 20.751C9.72556 19.4678 9.0683 17.8095 9.0683 16ZM11.9583 21.8438C12.5435 20.9806 14.3906 18.659 17.8421 17.6604C18.4404 19.2539 18.927 20.9956 19.1587 22.8085L19.2729 22.7938C18.3736 23.1713 17.4079 23.3652 16.4326 23.3643C14.8142 23.3656 13.2408 22.8309 11.9583 21.8438ZM20.641 22.0376C20.3833 20.3762 19.9414 18.7895 19.4078 17.324C20.6539 17.1438 22.0687 17.1399 23.6617 17.3992C23.2924 19.311 22.1818 20.9606 20.641 22.0376Z" fill="#A9A9A9"/>
</svg>
