<svg width="226" height="72" viewBox="0 0 226 72" fill="none" xmlns="http://www.w3.org/2000/svg">
<path d="M20.1669 20.0845C20.0604 18.9126 19.5863 18.0018 18.7447 17.3519C17.9137 16.6914 16.7259 16.3612 15.1811 16.3612C14.1584 16.3612 13.3061 16.4943 12.6243 16.7607C11.9425 17.027 11.4311 17.3945 11.0902 17.8633C10.7493 18.3214 10.5735 18.8487 10.5629 19.4453C10.5415 19.9354 10.6374 20.3668 10.8505 20.7397C11.0742 21.1126 11.3938 21.4428 11.8093 21.7305C12.2354 22.0075 12.7468 22.2525 13.3434 22.4656C13.94 22.6786 14.6112 22.8651 15.3569 23.0249L18.1694 23.6641C19.7887 24.0156 21.2163 24.4844 22.4521 25.0703C23.6985 25.6562 24.7425 26.354 25.5842 27.1637C26.4364 27.9734 27.081 28.9055 27.5178 29.9602C27.9545 31.0149 28.1783 32.1974 28.1889 33.5078C28.1783 35.5746 27.6563 37.3484 26.6229 38.8292C25.5895 40.31 24.1033 41.4446 22.1644 42.233C20.2362 43.0213 17.9084 43.4155 15.1811 43.4155C12.4432 43.4155 10.0568 43.0053 8.02202 42.185C5.98722 41.3647 4.40518 40.1183 3.27592 38.4457C2.14666 36.7731 1.56605 34.6584 1.53409 32.1016H9.10867C9.17259 33.1562 9.4549 34.0352 9.95561 34.7383C10.4563 35.4414 11.1435 35.9741 12.017 36.3363C12.9013 36.6985 13.924 36.8796 15.0852 36.8796C16.1506 36.8796 17.0561 36.7358 17.8018 36.4482C18.5582 36.1605 19.1389 35.761 19.5437 35.2496C19.9485 34.7383 20.1563 34.1523 20.1669 33.4918C20.1563 32.8739 19.9645 32.3466 19.5916 31.9098C19.2188 31.4624 18.6435 31.0788 17.8658 30.7592C17.0987 30.429 16.1186 30.1254 14.9254 29.8484L11.5057 29.0494C8.67188 28.3995 6.43999 27.3501 4.81001 25.9013C3.18004 24.4418 2.37038 22.4709 2.38104 19.9886C2.37038 17.9645 2.91371 16.1907 4.01101 14.6673C5.10831 13.1438 6.62642 11.956 8.56534 11.1037C10.5043 10.2514 12.7148 9.82528 15.1971 9.82528C17.7326 9.82528 19.9325 10.2567 21.7969 11.1197C23.6719 11.9719 25.1261 13.1705 26.1594 14.7152C27.1928 16.2599 27.7202 18.0497 27.7415 20.0845H20.1669ZM42.2917 43.4634C39.7136 43.4634 37.4977 42.9361 35.644 41.8814C33.8009 40.8161 32.3787 39.3352 31.3773 37.4389C30.3865 35.532 29.8911 33.3214 29.8911 30.8072C29.8911 28.2823 30.3865 26.0717 31.3773 24.1754C32.3787 22.2685 33.8009 20.7876 35.644 19.733C37.4977 18.6676 39.7136 18.1349 42.2917 18.1349C44.8698 18.1349 47.0804 18.6676 48.9234 19.733C50.7771 20.7876 52.1994 22.2685 53.1901 24.1754C54.1915 26.0717 54.6923 28.2823 54.6923 30.8072C54.6923 33.3214 54.1915 35.532 53.1901 37.4389C52.1994 39.3352 50.7771 40.8161 48.9234 41.8814C47.0804 42.9361 44.8698 43.4634 42.2917 43.4634ZM42.3396 37.5668C43.2771 37.5668 44.0708 37.2791 44.7207 36.7038C45.3705 36.1286 45.8659 35.3295 46.2068 34.3068C46.5584 33.2841 46.7342 32.1016 46.7342 30.7592C46.7342 29.3956 46.5584 28.2024 46.2068 27.1797C45.8659 26.157 45.3705 25.358 44.7207 24.7827C44.0708 24.2074 43.2771 23.9197 42.3396 23.9197C41.3702 23.9197 40.5499 24.2074 39.8787 24.7827C39.2182 25.358 38.7121 26.157 38.3606 27.1797C38.0197 28.2024 37.8492 29.3956 37.8492 30.7592C37.8492 32.1016 38.0197 33.2841 38.3606 34.3068C38.7121 35.3295 39.2182 36.1286 39.8787 36.7038C40.5499 37.2791 41.3702 37.5668 42.3396 37.5668ZM57.3453 43V10.2727H65.1596V22.6573H65.3194C65.639 21.9116 66.0917 21.1925 66.6777 20.5C67.2743 19.8075 68.0306 19.2429 68.9468 18.8061C69.8737 18.3587 70.9816 18.1349 72.2707 18.1349C73.9752 18.1349 75.5679 18.5824 77.0488 19.4773C78.5402 20.3722 79.7441 21.7518 80.6603 23.6161C81.5765 25.4805 82.0346 27.8562 82.0346 30.7433C82.0346 33.5238 81.5924 35.8516 80.7082 37.7266C79.8346 39.6016 78.6521 41.0078 77.1606 41.9453C75.6798 42.8828 74.0338 43.3516 72.2228 43.3516C70.987 43.3516 69.9163 43.1491 69.0108 42.7443C68.1052 42.3395 67.3435 41.8068 66.7256 41.1463C66.1184 40.4858 65.6496 39.7773 65.3194 39.021H65.0797V43H57.3453ZM64.9998 30.7273C64.9998 32.0483 65.1755 33.1989 65.5271 34.179C65.8893 35.1591 66.406 35.9208 67.0772 36.4641C67.759 36.9968 68.574 37.2631 69.5221 37.2631C70.4809 37.2631 71.2959 36.9968 71.9671 36.4641C72.6382 35.9208 73.1443 35.1591 73.4852 34.179C73.8368 33.1989 74.0125 32.0483 74.0125 30.7273C74.0125 29.4062 73.8368 28.261 73.4852 27.2915C73.1443 26.3221 72.6382 25.571 71.9671 25.0384C71.3066 24.5057 70.4916 24.2393 69.5221 24.2393C68.5633 24.2393 67.7483 24.5004 67.0772 25.0224C66.406 25.5444 65.8893 26.2901 65.5271 27.2596C65.1755 28.229 64.9998 29.3849 64.9998 30.7273ZM84.7795 43V18.4545H92.37V22.929H92.6257C93.0731 21.3097 93.8029 20.1058 94.815 19.3175C95.827 18.5185 97.0042 18.119 98.3466 18.119C98.7088 18.119 99.0817 18.1456 99.4652 18.1989C99.8487 18.2415 100.206 18.3107 100.536 18.4066V25.1982C100.163 25.0703 99.6729 24.9691 99.0657 24.8945C98.4691 24.82 97.9364 24.7827 97.4677 24.7827C96.5408 24.7827 95.7045 24.9904 94.9588 25.4059C94.2237 25.8107 93.6431 26.3807 93.217 27.1158C92.8015 27.8402 92.5937 28.6925 92.5937 29.6726V43H84.7795ZM112.569 43.4634C110.002 43.4634 107.786 42.9574 105.921 41.9453C104.068 40.9226 102.64 39.4684 101.639 37.5827C100.648 35.6864 100.153 33.4332 100.153 30.8232C100.153 28.2876 100.653 26.0717 101.655 24.1754C102.656 22.2685 104.068 20.7876 105.89 19.733C107.711 18.6676 109.858 18.1349 112.329 18.1349C114.077 18.1349 115.675 18.4066 117.124 18.9499C118.572 19.4933 119.824 20.2976 120.879 21.3629C121.934 22.4283 122.754 23.744 123.34 25.31C123.926 26.8654 124.219 28.6499 124.219 30.6634V32.6129H102.885V28.0746H116.948C116.937 27.2436 116.74 26.5032 116.356 25.8533C115.973 25.2035 115.446 24.6974 114.774 24.3352C114.114 23.9624 113.352 23.7759 112.489 23.7759C111.616 23.7759 110.833 23.973 110.14 24.3672C109.448 24.7507 108.899 25.2781 108.494 25.9492C108.089 26.6097 107.876 27.3608 107.855 28.2024V32.8207C107.855 33.8221 108.052 34.701 108.446 35.4574C108.84 36.2031 109.4 36.7837 110.124 37.1992C110.849 37.6147 111.712 37.8224 112.713 37.8224C113.405 37.8224 114.034 37.7266 114.599 37.5348C115.163 37.343 115.648 37.0607 116.053 36.6879C116.458 36.315 116.761 35.8569 116.964 35.3136L124.139 35.5213C123.84 37.13 123.185 38.5309 122.173 39.7241C121.172 40.9066 119.856 41.8281 118.226 42.4886C116.596 43.1385 114.711 43.4634 112.569 43.4634ZM135.178 10.2727H144.974L153.283 30.5355H153.667L161.976 10.2727H171.772V43H164.07V22.897H163.798L155.936 42.7923H151.014L143.152 22.7852H142.88V43H135.178V10.2727ZM175.356 43V18.4545H183.17V43H175.356ZM179.271 15.5941C178.174 15.5941 177.231 15.2319 176.443 14.5075C175.654 13.7724 175.26 12.8881 175.26 11.8548C175.26 10.832 175.654 9.95845 176.443 9.23402C177.231 8.49893 178.174 8.13139 179.271 8.13139C180.379 8.13139 181.322 8.49893 182.1 9.23402C182.888 9.95845 183.282 10.832 183.282 11.8548C183.282 12.8881 182.888 13.7724 182.1 14.5075C181.322 15.2319 180.379 15.5941 179.271 15.5941ZM186.794 43V18.4545H194.225V22.9609H194.497C195.008 21.4695 195.871 20.2923 197.085 19.4293C198.3 18.5664 199.749 18.1349 201.432 18.1349C203.136 18.1349 204.596 18.5717 205.81 19.4453C207.025 20.3189 207.797 21.4908 208.128 22.9609H208.383C208.841 21.5014 209.736 20.3349 211.068 19.4613C212.4 18.5771 213.971 18.1349 215.782 18.1349C218.104 18.1349 219.99 18.8807 221.439 20.3722C222.888 21.853 223.612 23.8878 223.612 26.4766V43H215.798V28.2663C215.798 27.0412 215.484 26.109 214.855 25.4698C214.227 24.82 213.412 24.495 212.41 24.495C211.334 24.495 210.487 24.8466 209.869 25.5497C209.262 26.2422 208.959 27.1744 208.959 28.3462V43H201.448V28.1864C201.448 27.0465 201.139 26.1463 200.521 25.4858C199.903 24.8253 199.088 24.495 198.076 24.495C197.394 24.495 196.792 24.6602 196.27 24.9904C195.748 25.31 195.338 25.7681 195.04 26.3647C194.752 26.9613 194.608 27.6644 194.608 28.4741V43H186.794Z" fill="white"/>
<path d="M80.2195 61.2536H78.3601C78.3071 60.9486 78.2093 60.6785 78.0668 60.4432C77.9242 60.2045 77.7469 60.0024 77.5348 59.8366C77.3227 59.6709 77.0807 59.5466 76.8089 59.4638C76.5405 59.3776 76.2505 59.3345 75.9389 59.3345C75.3854 59.3345 74.8949 59.4737 74.4673 59.7521C74.0398 60.0272 73.705 60.4316 73.4631 60.9652C73.2211 61.4955 73.1001 62.1435 73.1001 62.9091C73.1001 63.688 73.2211 64.3442 73.4631 64.8778C73.7083 65.4081 74.0431 65.8092 74.4673 66.081C74.8949 66.3494 75.3838 66.4837 75.9339 66.4837C76.2389 66.4837 76.5239 66.4439 76.7891 66.3643C77.0575 66.2815 77.2978 66.1605 77.5099 66.0014C77.7254 65.8423 77.906 65.6468 78.0518 65.4148C78.201 65.1828 78.3037 64.9176 78.3601 64.6193L80.2195 64.6293C80.1499 65.1132 79.9991 65.5672 79.767 65.9915C79.5384 66.4157 79.2384 66.7902 78.8672 67.1151C78.496 67.4366 78.0618 67.6884 77.5646 67.8707C77.0675 68.0497 76.5156 68.1392 75.9091 68.1392C75.0142 68.1392 74.2154 67.9321 73.5128 67.5178C72.8101 67.1035 72.2566 66.5052 71.8523 65.723C71.4479 64.9408 71.2457 64.0028 71.2457 62.9091C71.2457 61.812 71.4496 60.8741 71.8572 60.0952C72.2649 59.313 72.8201 58.7147 73.5227 58.3004C74.2254 57.8861 75.0208 57.679 75.9091 57.679C76.4759 57.679 77.0028 57.7585 77.4901 57.9176C77.9773 58.0767 78.4115 58.3104 78.7926 58.6186C79.1738 58.9235 79.487 59.2981 79.7322 59.7422C79.9808 60.183 80.1432 60.6868 80.2195 61.2536ZM84.74 68.1491C83.9942 68.1491 83.3479 67.9851 82.8011 67.657C82.2542 67.3288 81.8299 66.8698 81.5283 66.2798C81.23 65.6899 81.0809 65.0005 81.0809 64.2116C81.0809 63.4228 81.23 62.7318 81.5283 62.1385C81.8299 61.5452 82.2542 61.0845 82.8011 60.7564C83.3479 60.4283 83.9942 60.2642 84.74 60.2642C85.4857 60.2642 86.132 60.4283 86.6789 60.7564C87.2258 61.0845 87.6484 61.5452 87.9467 62.1385C88.2483 62.7318 88.3991 63.4228 88.3991 64.2116C88.3991 65.0005 88.2483 65.6899 87.9467 66.2798C87.6484 66.8698 87.2258 67.3288 86.6789 67.657C86.132 67.9851 85.4857 68.1491 84.74 68.1491ZM84.7499 66.7074C85.1543 66.7074 85.4923 66.5964 85.7641 66.3743C86.0359 66.1489 86.2381 65.8473 86.3707 65.4695C86.5066 65.0916 86.5745 64.6707 86.5745 64.2067C86.5745 63.7393 86.5066 63.3168 86.3707 62.9389C86.2381 62.5578 86.0359 62.2545 85.7641 62.0291C85.4923 61.8037 85.1543 61.6911 84.7499 61.6911C84.3356 61.6911 83.9909 61.8037 83.7158 62.0291C83.4441 62.2545 83.2402 62.5578 83.1043 62.9389C82.9717 63.3168 82.9055 63.7393 82.9055 64.2067C82.9055 64.6707 82.9717 65.0916 83.1043 65.4695C83.2402 65.8473 83.4441 66.1489 83.7158 66.3743C83.9909 66.5964 84.3356 66.7074 84.7499 66.7074ZM91.3063 63.5256V68H89.5066V60.3636H91.2268V61.6612H91.3162C91.4919 61.2337 91.772 60.8939 92.1564 60.642C92.5442 60.3902 93.0232 60.2642 93.5932 60.2642C94.1202 60.2642 94.5793 60.3769 94.9704 60.6023C95.3648 60.8277 95.6697 61.1541 95.8851 61.5817C96.1039 62.0092 96.2116 62.5279 96.2083 63.1378V68H94.4086V63.4162C94.4086 62.9058 94.276 62.5064 94.0109 62.218C93.749 61.9297 93.3861 61.7855 92.9221 61.7855C92.6072 61.7855 92.3271 61.8551 92.0819 61.9943C91.8399 62.1302 91.6493 62.3274 91.5101 62.5859C91.3743 62.8445 91.3063 63.1577 91.3063 63.5256ZM99.4176 63.5256V68H97.6178V57.8182H99.3778V61.6612H99.4673C99.6462 61.2304 99.923 60.8906 100.298 60.642C100.675 60.3902 101.156 60.2642 101.739 60.2642C102.27 60.2642 102.732 60.3752 103.126 60.5973C103.521 60.8194 103.826 61.1442 104.041 61.5717C104.26 61.9993 104.369 62.5213 104.369 63.1378V68H102.57V63.4162C102.57 62.9025 102.437 62.5031 102.172 62.218C101.91 61.9297 101.542 61.7855 101.068 61.7855C100.75 61.7855 100.465 61.8551 100.213 61.9943C99.9644 62.1302 99.7689 62.3274 99.6264 62.5859C99.4872 62.8445 99.4176 63.1577 99.4176 63.5256ZM109.164 68.1491C108.399 68.1491 107.738 67.9901 107.181 67.6719C106.627 67.3504 106.201 66.8963 105.903 66.3097C105.605 65.7197 105.456 65.0253 105.456 64.2266C105.456 63.4411 105.605 62.7517 105.903 62.1584C106.205 61.5618 106.626 61.0978 107.166 60.7663C107.706 60.4316 108.341 60.2642 109.07 60.2642C109.541 60.2642 109.985 60.3404 110.402 60.4929C110.823 60.642 111.195 60.8741 111.516 61.1889C111.841 61.5038 112.096 61.9048 112.282 62.392C112.467 62.8759 112.56 63.4527 112.56 64.1222V64.674H106.301V63.4609H110.835C110.832 63.1162 110.757 62.8097 110.611 62.5412C110.465 62.2694 110.262 62.0556 110 61.8999C109.741 61.7441 109.44 61.6662 109.095 61.6662C108.727 61.6662 108.404 61.7557 108.125 61.9347C107.847 62.1103 107.63 62.3423 107.474 62.6307C107.322 62.9157 107.244 63.2289 107.24 63.5703V64.6293C107.24 65.0734 107.322 65.4545 107.484 65.7727C107.646 66.0876 107.874 66.3295 108.165 66.4986C108.457 66.6643 108.798 66.7472 109.189 66.7472C109.451 66.7472 109.688 66.7107 109.9 66.6378C110.112 66.5616 110.296 66.4505 110.452 66.3047C110.608 66.1589 110.726 65.9782 110.805 65.7628L112.485 65.9517C112.379 66.3958 112.177 66.7836 111.879 67.1151C111.584 67.4432 111.206 67.6984 110.745 67.8807C110.285 68.0597 109.758 68.1491 109.164 68.1491ZM116.994 68.1491C116.231 68.1491 115.577 67.9818 115.03 67.647C114.486 67.3123 114.067 66.8499 113.772 66.2599C113.48 65.6667 113.334 64.9839 113.334 64.2116C113.334 63.4361 113.484 62.7517 113.782 62.1584C114.08 61.5618 114.501 61.0978 115.045 60.7663C115.592 60.4316 116.238 60.2642 116.984 60.2642C117.603 60.2642 118.152 60.3786 118.629 60.6072C119.11 60.8326 119.493 61.1525 119.778 61.5668C120.063 61.9777 120.225 62.4583 120.265 63.0085H118.545C118.475 62.6406 118.309 62.334 118.048 62.0888C117.789 61.8402 117.443 61.7159 117.008 61.7159C116.641 61.7159 116.317 61.8153 116.039 62.0142C115.761 62.2098 115.544 62.4915 115.388 62.8594C115.235 63.2273 115.159 63.6681 115.159 64.1818C115.159 64.7022 115.235 65.1496 115.388 65.5241C115.54 65.8954 115.754 66.1821 116.029 66.3842C116.307 66.5831 116.634 66.6825 117.008 66.6825C117.274 66.6825 117.511 66.6328 117.719 66.5334C117.932 66.4306 118.109 66.2831 118.251 66.0909C118.394 65.8987 118.492 65.665 118.545 65.3899H120.265C120.222 65.9302 120.063 66.4091 119.788 66.8267C119.513 67.241 119.138 67.5658 118.664 67.8011C118.19 68.0331 117.633 68.1491 116.994 68.1491ZM116.477 67.9602H117.451L117.371 68.3828C117.683 68.4292 117.946 68.5485 118.162 68.7408C118.381 68.9363 118.49 69.2164 118.49 69.581C118.493 70.0516 118.283 70.4295 117.859 70.7145C117.434 70.9995 116.83 71.142 116.044 71.142L116.024 70.2571C116.405 70.2571 116.709 70.2057 116.934 70.103C117.159 70.0036 117.274 69.8445 117.277 69.6257C117.284 69.4136 117.204 69.2578 117.038 69.1584C116.876 69.0623 116.617 68.996 116.263 68.9595L116.477 67.9602ZM123.52 68.1541C123.036 68.1541 122.6 68.0679 122.213 67.8956C121.828 67.7199 121.523 67.4614 121.298 67.12C121.076 66.7786 120.965 66.3577 120.965 65.8572C120.965 65.4264 121.044 65.0701 121.203 64.7884C121.362 64.5066 121.58 64.2812 121.855 64.1122C122.13 63.9432 122.44 63.8156 122.784 63.7294C123.132 63.6399 123.492 63.5753 123.863 63.5355C124.311 63.4891 124.674 63.4477 124.952 63.4112C125.23 63.3714 125.433 63.3118 125.558 63.2322C125.688 63.1494 125.752 63.0218 125.752 62.8494V62.8196C125.752 62.4451 125.641 62.1551 125.419 61.9496C125.197 61.7441 124.877 61.6413 124.46 61.6413C124.019 61.6413 123.669 61.7375 123.411 61.9297C123.156 62.1219 122.983 62.349 122.894 62.6108L121.213 62.3722C121.346 61.9081 121.565 61.5204 121.87 61.2088C122.174 60.8939 122.547 60.6586 122.988 60.5028C123.429 60.3438 123.916 60.2642 124.45 60.2642C124.818 60.2642 125.184 60.3073 125.549 60.3935C125.913 60.4796 126.246 60.6222 126.548 60.821C126.849 61.0166 127.091 61.2834 127.274 61.6214C127.459 61.9595 127.552 62.3821 127.552 62.8892V68H125.822V66.951H125.762C125.653 67.1631 125.499 67.362 125.3 67.5476C125.104 67.7299 124.857 67.8774 124.559 67.9901C124.264 68.0994 123.918 68.1541 123.52 68.1541ZM123.987 66.8317C124.349 66.8317 124.662 66.7604 124.927 66.6179C125.192 66.4721 125.396 66.2798 125.539 66.0412C125.684 65.8026 125.757 65.5424 125.757 65.2607V64.3608C125.701 64.4072 125.605 64.4503 125.469 64.4901C125.336 64.5298 125.187 64.5646 125.022 64.5945C124.856 64.6243 124.692 64.6508 124.529 64.674C124.367 64.6972 124.226 64.7171 124.107 64.7337C123.838 64.7701 123.598 64.8298 123.386 64.9126C123.174 64.9955 123.006 65.1115 122.884 65.2607C122.761 65.4065 122.7 65.5954 122.7 65.8274C122.7 66.1589 122.821 66.4091 123.063 66.5781C123.305 66.7472 123.613 66.8317 123.987 66.8317ZM133.57 63.0185V64.5H128.986V63.0185H133.57ZM135.043 68V60.3636H136.763V61.6612H136.853C137.012 61.2237 137.275 60.8823 137.643 60.6371C138.011 60.3885 138.45 60.2642 138.961 60.2642C139.478 60.2642 139.914 60.3902 140.268 60.642C140.626 60.8906 140.878 61.2304 141.024 61.6612H141.104C141.273 61.237 141.558 60.8989 141.959 60.647C142.363 60.3918 142.842 60.2642 143.396 60.2642C144.098 60.2642 144.672 60.4863 145.116 60.9304C145.56 61.3745 145.782 62.0225 145.782 62.8743V68H143.977V63.1527C143.977 62.6787 143.851 62.3324 143.599 62.1136C143.347 61.8916 143.039 61.7805 142.675 61.7805C142.24 61.7805 141.901 61.9164 141.655 62.1882C141.413 62.4567 141.293 62.8063 141.293 63.2372V68H139.528V63.0781C139.528 62.6837 139.408 62.3688 139.17 62.1335C138.934 61.8982 138.626 61.7805 138.245 61.7805C137.986 61.7805 137.751 61.8468 137.539 61.9794C137.327 62.1087 137.158 62.2926 137.032 62.5312C136.906 62.7666 136.843 63.0417 136.843 63.3565V68H135.043ZM150.568 68.1491C149.803 68.1491 149.142 67.9901 148.585 67.6719C148.031 67.3504 147.605 66.8963 147.307 66.3097C147.009 65.7197 146.86 65.0253 146.86 64.2266C146.86 63.4411 147.009 62.7517 147.307 62.1584C147.609 61.5618 148.03 61.0978 148.57 60.7663C149.11 60.4316 149.745 60.2642 150.474 60.2642C150.945 60.2642 151.389 60.3404 151.806 60.4929C152.227 60.642 152.598 60.8741 152.92 61.1889C153.245 61.5038 153.5 61.9048 153.686 62.392C153.871 62.8759 153.964 63.4527 153.964 64.1222V64.674H147.705V63.4609H152.239C152.236 63.1162 152.161 62.8097 152.015 62.5412C151.869 62.2694 151.665 62.0556 151.404 61.8999C151.145 61.7441 150.843 61.6662 150.499 61.6662C150.131 61.6662 149.808 61.7557 149.529 61.9347C149.251 62.1103 149.034 62.3423 148.878 62.6307C148.726 62.9157 148.648 63.2289 148.644 63.5703V64.6293C148.644 65.0734 148.726 65.4545 148.888 65.7727C149.05 66.0876 149.277 66.3295 149.569 66.4986C149.861 66.6643 150.202 66.7472 150.593 66.7472C150.855 66.7472 151.092 66.7107 151.304 66.6378C151.516 66.5616 151.7 66.4505 151.856 66.3047C152.012 66.1589 152.129 65.9782 152.209 65.7628L153.889 65.9517C153.783 66.3958 153.581 66.7836 153.283 67.1151C152.988 67.4432 152.61 67.6984 152.149 67.8807C151.689 68.0597 151.162 68.1491 150.568 68.1491Z" fill="url(#paint0_linear_39_8)"/>
<defs>
<linearGradient id="paint0_linear_39_8" x1="70.5" y1="62.5" x2="155.5" y2="62.5" gradientUnits="userSpaceOnUse">
<stop stop-color="#4FC3F7"/>
<stop offset="1" stop-color="#F5F5F5"/>
</linearGradient>
</defs>
</svg>
