<svg width="33" height="32" viewBox="0 0 33 32" fill="none" xmlns="http://www.w3.org/2000/svg">
<path d="M16.4997 0C7.67757 0 0.5 7.17757 0.5 16C0.5 24.8227 7.67757 32 16.4997 32C25.3222 32 32.5 24.8227 32.5 16C32.4997 7.17757 25.3219 0 16.4997 0ZM16.4997 30.4219C8.5476 30.4219 2.07806 23.9524 2.07806 16C2.07806 8.04787 8.5476 1.57806 16.4997 1.57806C24.4519 1.57806 30.9219 8.04787 30.9219 16C30.9217 23.9524 24.4519 30.4219 16.4997 30.4219Z" fill="#484E53"/>
<path d="M23.6403 10.7867C24.008 10.5968 24.8885 10.0327 25.3036 8.82175C25.3036 8.82175 24.3033 9.54503 22.942 9.63025L22.9173 9.64393C22.5605 9.25356 22.1262 8.94192 21.6422 8.72893C21.1582 8.51594 20.635 8.40629 20.1062 8.40699C18 8.40699 16.2928 10.1145 16.2928 12.2206C16.2928 12.5402 16.3325 12.8506 16.4069 13.1472L16.3885 13.1196C16.3885 13.1196 12.304 13.3537 8.45324 9.14105C8.45324 9.14105 6.75077 12.0344 9.66572 14.2471C9.02739 14.3534 7.90013 13.779 7.90013 13.779C7.90013 13.779 7.96378 16.821 10.9847 17.5658C10.4955 17.6936 9.5805 17.7357 9.28278 17.6084C9.28278 17.6084 9.72937 19.9271 12.8145 20.3316C12.0273 20.7785 10.5594 22.1398 7.24023 21.8844C7.24023 21.8844 9.62364 23.8415 14.0488 23.5654C18.474 23.2892 21.6866 20.3101 22.9843 17.1616C24.282 14.0131 23.9209 12.2204 23.9209 12.2204C23.9209 12.2204 25.0053 11.6512 25.7507 10.2899C25.4064 10.393 24.1295 10.7049 23.6542 10.8204C23.6494 10.8092 23.6448 10.798 23.6403 10.7867Z" fill="#A9A9A9"/>
</svg>
